<svg width="14" height="15" viewBox="0 0 14 15" fill="none" xmlns="http://www.w3.org/2000/svg">
<path d="M5.18123 2.06795C5.2193 1.66752 5.40528 1.29567 5.70285 1.02504C6.00043 0.754411 6.38821 0.604447 6.79044 0.604447C7.19267 0.604447 7.58045 0.754411 7.87802 1.02504C8.1756 1.29567 8.36158 1.66752 8.39964 2.06795C8.42252 2.32662 8.50738 2.57597 8.64704 2.79489C8.7867 3.01382 8.97705 3.19588 9.20198 3.32566C9.4269 3.45544 9.67978 3.52911 9.93922 3.54046C10.1986 3.5518 10.457 3.50047 10.6924 3.39082C11.0579 3.22487 11.4721 3.20086 11.8543 3.32345C12.2365 3.44605 12.5595 3.70647 12.7603 4.05405C12.9611 4.40163 13.0254 4.81148 12.9407 5.20385C12.856 5.59622 12.6283 5.94303 12.3019 6.17679C12.0894 6.32589 11.916 6.52399 11.7962 6.75431C11.6765 6.98463 11.6139 7.24041 11.6139 7.5C11.6139 7.7596 11.6765 8.01538 11.7962 8.2457C11.916 8.47602 12.0894 8.67411 12.3019 8.82322C12.6283 9.05697 12.856 9.40378 12.9407 9.79615C13.0254 10.1885 12.9611 10.5984 12.7603 10.946C12.5595 11.2935 12.2365 11.554 11.8543 11.6766C11.4721 11.7991 11.0579 11.7751 10.6924 11.6092C10.457 11.4995 10.1986 11.4482 9.93922 11.4596C9.67978 11.4709 9.4269 11.5446 9.20198 11.6743C8.97705 11.8041 8.7867 11.9862 8.64704 12.2051C8.50738 12.424 8.42252 12.6734 8.39964 12.9321C8.36158 13.3325 8.1756 13.7043 7.87802 13.975C7.58045 14.2456 7.19267 14.3956 6.79044 14.3956C6.38821 14.3956 6.00043 14.2456 5.70285 13.975C5.40528 13.7043 5.2193 13.3325 5.18123 12.9321C5.1584 12.6733 5.07354 12.4238 4.93384 12.2048C4.79414 11.9858 4.60371 11.8037 4.37869 11.6739C4.15367 11.5441 3.90069 11.4705 3.64116 11.4592C3.38164 11.448 3.12322 11.4994 2.8878 11.6092C2.52229 11.7751 2.10812 11.7991 1.72588 11.6766C1.34365 11.554 1.0207 11.2935 0.819896 10.946C0.61909 10.5984 0.554791 10.1885 0.639514 9.79615C0.724236 9.40378 0.951919 9.05697 1.27825 8.82322C1.49075 8.67411 1.66422 8.47602 1.78397 8.2457C1.90373 8.01538 1.96625 7.7596 1.96625 7.5C1.96625 7.24041 1.90373 6.98463 1.78397 6.75431C1.66422 6.52399 1.49075 6.32589 1.27825 6.17679C0.952377 5.94292 0.725096 5.59624 0.640578 5.20414C0.55606 4.81203 0.620343 4.40251 0.820933 4.05516C1.02152 3.70781 1.34409 3.44744 1.72595 3.32467C2.1078 3.20189 2.52167 3.22546 2.88711 3.39082C3.1225 3.50047 3.38085 3.5518 3.64028 3.54046C3.89971 3.52911 4.1526 3.45544 4.37752 3.32566C4.60245 3.19588 4.7928 3.01382 4.93246 2.79489C5.07212 2.57597 5.15698 2.32662 5.17985 2.06795" stroke="#33383F" stroke-width="1.20889" stroke-linecap="round" stroke-linejoin="round" />
</svg>