<svg width="15" height="14" viewBox="0 0 15 14" fill="none" xmlns="http://www.w3.org/2000/svg">
<path d="M14.1351 10.9089L8.68544 1.37188C8.56661 1.16221 8.39429 0.987806 8.18606 0.866469C7.97782 0.745132 7.74113 0.681203 7.50012 0.681203C7.25912 0.681203 7.02243 0.745132 6.8142 0.866469C6.60596 0.987806 6.43364 1.16221 6.31481 1.37188L0.865106 10.9089C0.744996 11.1169 0.682015 11.353 0.682547 11.5932C0.683079 11.8334 0.747105 12.0691 0.868135 12.2766C0.989165 12.4841 1.1629 12.6559 1.37172 12.7746C1.58055 12.8933 1.81704 12.9547 2.05723 12.9525H12.9566C13.1957 12.9523 13.4304 12.8891 13.6374 12.7695C13.8443 12.6498 14.0161 12.4778 14.1355 12.2707C14.2549 12.0636 14.3177 11.8288 14.3177 11.5897C14.3176 11.3507 14.2547 11.1159 14.1351 10.9089Z" stroke="#F9EDD6" stroke-width="1.33333" stroke-linecap="round" stroke-linejoin="round" />
</svg>